<svg width="400" height="500" viewBox="0 0 400 500" fill="none" xmlns="http://www.w3.org/2000/svg">
  <defs>
    <linearGradient id="jersey2Gradient" x1="0%" y1="0%" x2="100%" y2="100%">
      <stop offset="0%" style="stop-color:#f8f8f8;stop-opacity:1" />
      <stop offset="100%" style="stop-color:#e8e8e8;stop-opacity:1" />
    </linearGradient>
    <linearGradient id="accent2Gradient" x1="0%" y1="0%" x2="100%" y2="0%">
      <stop offset="0%" style="stop-color:#2a2a2a;stop-opacity:1" />
      <stop offset="100%" style="stop-color:#444;stop-opacity:1" />
    </linearGradient>
  </defs>
  
  <!-- Background -->
  <rect width="400" height="500" fill="#fafafa"/>
  
  <!-- Jersey silhouette -->
  <!-- Main body -->
  <path d="M90 160 L90 400 Q90 420 110 420 L290 420 Q310 420 310 400 L310 160 Q310 140 290 140 L110 140 Q90 140 90 160 Z" fill="url(#jersey2Gradient)" stroke="#ddd" stroke-width="1"/>
  
  <!-- Sleeves -->
  <ellipse cx="70" cy="200" rx="20" ry="40" fill="url(#jersey2Gradient)" stroke="#ddd" stroke-width="1"/>
  <ellipse cx="330" cy="200" rx="20" ry="40" fill="url(#jersey2Gradient)" stroke="#ddd" stroke-width="1"/>
  
  <!-- V-neck design -->
  <path d="M160 140 L200 170 L240 140" stroke="#ddd" stroke-width="1.5" fill="none"/>
  <path d="M165 140 L200 165 L235 140" stroke="url(#accent2Gradient)" stroke-width="1" fill="none"/>
  
  <!-- Jersey details -->
  <!-- Diagonal chest design -->
  <path d="M95 200 L305 180" stroke="url(#accent2Gradient)" stroke-width="3"/>
  <path d="M95 210 L305 190" stroke="url(#accent2Gradient)" stroke-width="1" opacity="0.5"/>
  
  <!-- Identity text design -->
  <rect x="140" y="220" width="120" height="40" fill="none"/>
  <text x="200" y="235" text-anchor="middle" font-family="Inter, sans-serif" font-size="10" font-weight="700" fill="#333">IDENTITY</text>
  <text x="200" y="248" text-anchor="middle" font-family="Inter, sans-serif" font-size="6" font-weight="400" fill="#666">DEFINE YOURSELF</text>
  <text x="200" y="258" text-anchor="middle" font-family="Inter, sans-serif" font-size="5" font-weight="300" fill="#999">JFS WORLD</text>
  
  <!-- Geometric pattern -->
  <g transform="translate(200, 320)">
    <polygon points="-15,0 0,-15 15,0 0,15" fill="none" stroke="url(#accent2Gradient)" stroke-width="1"/>
    <polygon points="-8,0 0,-8 8,0 0,8" fill="url(#accent2Gradient)" opacity="0.3"/>
  </g>
  
  <!-- Side contrast panels -->
  <rect x="95" y="160" width="6" height="240" fill="url(#accent2Gradient)" opacity="0.2"/>
  <rect x="299" y="160" width="6" height="240" fill="url(#accent2Gradient)" opacity="0.2"/>
  
  <!-- Athletic performance details -->
  <rect x="65" y="190" width="10" height="1" fill="url(#accent2Gradient)"/>
  <rect x="65" y="195" width="10" height="1" fill="url(#accent2Gradient)"/>
  <rect x="65" y="200" width="10" height="1" fill="url(#accent2Gradient)"/>
  <rect x="325" y="190" width="10" height="1" fill="url(#accent2Gradient)"/>
  <rect x="325" y="195" width="10" height="1" fill="url(#accent2Gradient)"/>
  <rect x="325" y="200" width="10" height="1" fill="url(#accent2Gradient)"/>
  
  <!-- Bottom hem with contrast -->
  <rect x="95" y="410" width="210" height="6" fill="url(#accent2Gradient)" opacity="0.3"/>
  <rect x="95" y="416" width="210" height="2" fill="url(#accent2Gradient)"/>
  
  <!-- Shoulder seams -->
  <line x1="90" y1="160" x2="70" y2="180" stroke="#ddd" stroke-width="1"/>
  <line x1="310" y1="160" x2="330" y2="180" stroke="#ddd" stroke-width="1"/>
  
  <!-- Performance mesh areas -->
  <g opacity="0.4">
    <rect x="260" y="340" width="30" height="20" fill="none" stroke="#ccc" stroke-width="0.5"/>
    <line x1="265" y1="345" x2="285" y2="345" stroke="#ccc" stroke-width="0.3"/>
    <line x1="265" y1="350" x2="285" y2="350" stroke="#ccc" stroke-width="0.3"/>
    <line x1="265" y1="355" x2="285" y2="355" stroke="#ccc" stroke-width="0.3"/>
  </g>
</svg>
