<svg width="120" height="40" viewBox="0 0 120 40" fill="none" xmlns="http://www.w3.org/2000/svg">
  <defs>
    <linearGradient id="logoGradient" x1="0%" y1="0%" x2="100%" y2="0%">
      <stop offset="0%" style="stop-color:#1a1a1a;stop-opacity:1" />
      <stop offset="100%" style="stop-color:#333;stop-opacity:1" />
    </linearGradient>
  </defs>
  
  <!-- J -->
  <path d="M8 8 L8 24 Q8 32 16 32 Q24 32 24 24 L24 20" stroke="url(#logoGradient)" stroke-width="3" fill="none" stroke-linecap="round"/>
  
  <!-- F -->
  <path d="M32 8 L32 32 M32 8 L44 8 M32 20 L40 20" stroke="url(#logoGradient)" stroke-width="3" fill="none" stroke-linecap="round"/>
  
  <!-- S -->
  <path d="M52 12 Q52 8 56 8 Q60 8 60 12 Q60 16 56 16 L56 16 Q52 16 52 20 Q52 24 56 24 L56 24 Q60 24 60 28 Q60 32 56 32 Q52 32 52 28" stroke="url(#logoGradient)" stroke-width="3" fill="none" stroke-linecap="round"/>
  
  <!-- Decorative Elements -->
  <circle cx="75" cy="20" r="2" fill="url(#logoGradient)"/>
  <circle cx="85" cy="15" r="1.5" fill="url(#logoGradient)" opacity="0.7"/>
  <circle cx="85" cy="25" r="1.5" fill="url(#logoGradient)" opacity="0.7"/>
  
  <!-- WORLD text -->
  <text x="92" y="16" font-family="Inter, sans-serif" font-size="6" font-weight="800" fill="url(#logoGradient)" letter-spacing="0.5px">WORLD</text>
  <text x="92" y="26" font-family="Inter, sans-serif" font-size="4" font-weight="400" fill="#666" letter-spacing="1px">FASHION SENSE</text>
</svg>
